<svg width="65" height="73" viewBox="0 0 65 73" fill="none" xmlns="http://www.w3.org/2000/svg">
<path d="M63.8376 22.0625H61.6984C60.7101 22.0535 59.7337 22.3057 58.8479 22.7989C57.9621 23.2921 57.1917 24.0124 56.5987 24.9019C56.5987 24.9019 50.884 32.5946 50.7161 32.8906H46.7245C45.8735 32.8906 45.0573 33.2709 44.4556 33.9478C43.8538 34.6247 43.5158 35.5427 43.5158 36.5C43.5189 37.1218 43.6664 37.7318 43.9436 38.2698C43.3044 38.7186 42.8274 39.4079 42.5973 40.2149C42.3672 41.022 42.3989 41.8948 42.6868 42.678C41.9366 42.901 41.2845 43.424 40.8524 44.149C40.4204 44.8741 40.2381 45.7514 40.3397 46.6167C40.4414 47.482 40.82 48.2759 41.4046 48.8498C41.9892 49.4237 42.7398 49.7382 43.5158 49.7344H49.9332C50.0828 49.7344 50.2307 49.6992 50.3674 49.6309L59.9935 44.8184C60.2206 44.7051 60.4055 44.5065 60.5166 44.2565L64.7948 34.6315C64.8689 34.4645 64.9073 34.2804 64.9072 34.0937V23.2656C64.9072 22.9465 64.7945 22.6405 64.5939 22.4149C64.3933 22.1892 64.1213 22.0625 63.8376 22.0625ZM46.7245 35.2969H50.0572C50.0643 36.1536 50.2924 36.9895 50.714 37.7031H46.7245C46.4408 37.7031 46.1687 37.5764 45.9682 37.3507C45.7676 37.1251 45.6549 36.8191 45.6549 36.5C45.6549 36.1809 45.7676 35.8749 45.9682 35.6493C46.1687 35.4236 46.4408 35.2969 46.7245 35.2969ZM45.6549 40.1094H50.5599L48.4208 42.5156H45.6549C45.3712 42.5156 45.0992 42.3889 44.8986 42.1632C44.698 41.9376 44.5853 41.6316 44.5853 41.3125C44.5853 40.9934 44.698 40.6874 44.8986 40.4618C45.0992 40.2361 45.3712 40.1094 45.6549 40.1094ZM62.768 33.8098L58.7742 42.7947L49.7064 47.3281H43.5158C43.3593 47.3284 43.2047 47.29 43.0629 47.2158C42.9211 47.1415 42.7955 47.0332 42.6949 46.8984C42.5943 46.7636 42.5213 46.6056 42.4809 46.4356C42.4405 46.2656 42.4338 46.0877 42.4612 45.9145C42.5249 45.6231 42.676 45.3653 42.8889 45.1845C43.1018 45.0037 43.3636 44.911 43.6302 44.9219H48.8636C49.1472 44.9218 49.4193 44.795 49.6198 44.5694L59.2459 33.7412L57.7335 32.04L53.1419 37.205L52.8285 36.8525C52.6276 36.6501 52.4681 36.4011 52.3609 36.1226C52.2538 35.8442 52.2015 35.543 52.2077 35.2397C52.2139 34.9363 52.2784 34.6381 52.3968 34.3656C52.5153 34.093 52.6848 33.8525 52.8937 33.6606L58.2245 26.4635C58.6173 25.8402 59.1385 25.3331 59.7434 24.9857C60.3484 24.6383 61.0192 24.4609 61.6984 24.4687H62.768V33.8098Z" fill="white"/>
<path d="M2.64021 66.8188L0.84547 70.8528C0.763965 71.0363 0.725512 71.2402 0.733761 71.4451C0.742011 71.65 0.796689 71.8491 0.892604 72.0235C0.988518 72.1979 1.12248 72.3419 1.28178 72.4417C1.44107 72.5415 1.6204 72.5938 1.80273 72.5938H18.9159C19.4248 72.5933 19.9264 72.4568 20.3794 72.1957C20.8323 71.9346 21.2237 71.5563 21.5213 71.0919C21.8189 70.6274 22.0142 70.0902 22.0912 69.5242C22.1682 68.9583 22.1246 68.3799 21.9641 67.8366C21.7371 67.1076 21.3118 66.4775 20.7485 66.0356C20.1853 65.5938 19.5126 65.3626 18.826 65.375H17.4356L18.8089 62.3034C18.8378 62.2369 18.8614 62.1677 18.8795 62.0965C19.1135 61.2002 19.1615 60.2554 19.0199 59.3349C18.8782 58.4144 18.5506 57.5428 18.0623 56.7871L19.01 54.6443L21.1598 58.676L25.4028 71.8021C25.4776 72.0332 25.6135 72.233 25.7923 72.3745C25.9711 72.5161 26.1842 72.5926 26.4028 72.5938H33.8898C34.3988 72.5933 34.9004 72.4568 35.3533 72.1957C35.8063 71.9346 36.1977 71.5563 36.4953 71.0919C36.7929 70.6274 36.9882 70.0902 37.0652 69.5242C37.1422 68.9583 37.0986 68.3799 36.9381 67.8366C36.7111 67.1076 36.2858 66.4775 35.7225 66.0356C35.1593 65.5938 34.4866 65.3626 33.8 65.375H32.6064L30.7881 56.1326L33.647 52.9106C35.2995 50.6754 36.1491 47.8258 36.029 44.9219V41.8106L47.1675 29.2812H48.8638C49.9985 29.2812 51.0867 28.7742 51.889 27.8717C52.6914 26.9692 53.1421 25.7451 53.1421 24.4687C53.1421 23.1924 52.6914 21.9683 51.889 21.0658C51.0867 20.1633 49.9985 19.6562 48.8638 19.6562C48.7762 19.6563 48.6889 19.6684 48.6039 19.6923L44.3256 20.8955C44.1378 20.9485 43.9663 21.0578 43.8294 21.2119L38.535 27.1674L36.2493 29.0924L38.1531 16.2418C38.1907 15.9909 38.1566 15.7332 38.0558 15.5055L36.0653 11.0286C36.3723 8.5153 36.8996 2.00519 34.3476 0.650473C34.0535 0.494788 33.7336 0.410276 33.4086 0.402401C33.0836 0.394525 32.7607 0.463462 32.4609 0.604754C30.3827 1.52394 28.5644 5.71804 27.8307 7.62138H24.975C24.2412 5.71804 22.423 1.52394 20.3448 0.604754C20.045 0.463462 19.7221 0.394525 19.3971 0.402401C19.0721 0.410276 18.7522 0.494788 18.4581 0.650473C15.9061 2.01121 16.4334 8.5153 16.7404 11.0286L14.7499 15.5055C14.6491 15.7332 14.615 15.9909 14.6526 16.2418L16.7767 30.5842V34.4799C8.29396 38.4695 0.733165 49.5335 0.733165 58.1562V64.1719C0.733225 64.4909 0.845952 64.7969 1.04655 65.0225L2.64021 66.8188ZM36.029 32.2891L39.8794 29.0406C39.92 29.0066 39.9583 28.9692 39.9939 28.9287L45.1278 23.1537L48.9783 22.0709C49.5243 22.1199 50.0329 22.4026 50.3991 22.8609C50.7653 23.3192 50.9613 23.918 50.9466 24.534C50.932 25.15 50.7078 25.7362 50.3202 26.1717C49.9327 26.6073 49.4114 26.859 48.8638 26.875H46.7247C46.441 26.8751 46.169 27.0019 45.9685 27.2275L36.029 38.4082V32.2891ZM33.8898 34.0937H18.9159V31.6875H33.8898V34.0937ZM27.4724 37.7031C27.4724 37.9411 27.4097 38.1737 27.2922 38.3715C27.1746 38.5694 27.0076 38.7236 26.8122 38.8147C26.6167 38.9057 26.4017 38.9296 26.1942 38.8831C25.9867 38.8367 25.7961 38.7221 25.6465 38.5539C25.497 38.3856 25.3951 38.1712 25.3538 37.9378C25.3126 37.7045 25.3337 37.4625 25.4147 37.2427C25.4956 37.0229 25.6327 36.835 25.8086 36.7028C25.9845 36.5706 26.1913 36.5 26.4028 36.5C26.6865 36.5 26.9586 36.6268 27.1591 36.8524C27.3597 37.078 27.4724 37.384 27.4724 37.7031ZM33.2481 2.84858C33.3743 2.79324 33.4117 2.8149 33.4374 2.82813C34.0952 3.17944 34.3519 6.28952 34.0631 9.62819L29.9859 8.10624C30.8843 5.91294 32.2694 3.2793 33.2481 2.84858ZM19.3736 2.82813C19.3914 2.81754 19.4113 2.81216 19.4314 2.81249C19.4769 2.81523 19.5215 2.82747 19.5629 2.84858C20.548 3.28411 21.916 5.88286 22.8209 8.10022L18.7469 9.62819C18.457 6.28952 18.7148 3.17944 19.3736 2.82813ZM18.6046 12.2185L24.438 10.0312H28.3676L34.2011 12.2185L35.9862 16.2346L34.0535 29.2812H18.7522L16.8195 16.2346L18.6046 12.2185ZM2.87231 58.1562C2.87231 50.3672 10.232 39.9024 18.0602 36.5H23.3888C23.2629 36.8855 23.197 37.2925 23.1941 37.7031C23.1941 38.6604 23.5322 39.5784 24.1339 40.2553C24.7357 40.9322 25.5518 41.3125 26.4028 41.3125C27.2539 41.3125 28.07 40.9322 28.6717 40.2553C29.2735 39.5784 29.6116 38.6604 29.6116 37.7031C29.608 37.2923 29.5414 36.8853 29.4148 36.5H33.8898V44.9219C34.0184 47.2278 33.3661 49.503 32.0641 51.29L28.8554 54.8994C28.7282 55.0425 28.6351 55.2194 28.5848 55.4137C28.5345 55.6081 28.5286 55.8135 28.5677 56.0111L30.7068 66.8392C30.7596 67.1064 30.8918 67.3453 31.0816 67.5166C31.2714 67.6878 31.5074 67.7812 31.7507 67.7813H33.8C34.0324 67.7691 34.2626 67.8376 34.4593 67.9775C34.6559 68.1173 34.8096 68.3219 34.8995 68.5633C34.9584 68.7508 34.9759 68.9515 34.9505 69.1483C34.9252 69.3451 34.8578 69.532 34.7541 69.693C34.6555 69.847 34.5256 69.9722 34.3753 70.0582C34.2249 70.1442 34.0585 70.1886 33.8898 70.1875H27.1515L23.13 57.7448C23.1065 57.6723 23.0768 57.6026 23.0412 57.5366L19.9854 51.8074V44.9219H17.8463V51.8579L16.2633 55.4396C14.7403 55.0053 11.8193 55.0787 8.45546 59.8105L10.1261 61.3145C13.2824 56.8773 15.5563 57.6305 16.0943 57.9C16.4631 58.3574 16.7246 58.9111 16.8553 59.5108C16.9861 60.1105 16.9818 60.7375 16.843 61.3349L14.751 66.0403C14.6695 66.2237 14.631 66.4275 14.6392 66.6323C14.6474 66.8371 14.702 67.0361 14.7978 67.2105C14.8936 67.3849 15.0274 67.5289 15.1866 67.6288C15.3457 67.7287 15.5249 67.7811 15.7071 67.7813H18.826C19.0585 67.7691 19.2886 67.8376 19.4853 67.9775C19.682 68.1173 19.8356 68.3219 19.9255 68.5633C19.9844 68.7508 20.0019 68.9515 19.9765 69.1483C19.9512 69.3451 19.8838 69.532 19.7801 69.693C19.6815 69.847 19.5516 69.9722 19.4013 70.0582C19.251 70.1442 19.0845 70.1886 18.9159 70.1875H3.5333L4.90449 67.1159C5.00471 66.89 5.03922 66.6344 5.00313 66.3852C4.96705 66.136 4.86219 65.9059 4.70341 65.7275L2.87231 63.6738V58.1562Z" fill="white"/>
<path d="M46.1063 15.7821C46.2962 15.9536 46.5324 16.047 46.7759 16.047C47.0194 16.047 47.2556 15.9536 47.4454 15.7821L52.8372 10.9059C53.3078 10.4059 53.6809 9.80123 53.9328 9.13038C54.1847 8.45953 54.3098 7.73711 54.3003 7.00896C54.3098 6.28099 54.1847 5.55875 53.9328 4.8881C53.6809 4.21745 53.3078 3.61303 52.8372 3.11324C52.058 2.21914 51.0231 1.66331 49.9152 1.54378C48.8072 1.42426 47.6973 1.74872 46.7812 2.45994C45.866 1.73231 44.7492 1.39798 43.6335 1.51763C42.5178 1.63728 41.4772 2.20298 40.7007 3.11203C40.2301 3.6121 39.8571 4.21674 39.6052 4.88758C39.3533 5.55841 39.2281 6.28082 39.2376 7.00896C39.2299 7.74959 39.3608 8.48377 39.6217 9.16383C39.8826 9.84388 40.2677 10.4546 40.7521 10.9564L46.1063 15.7821ZM42.1414 4.89025C42.6816 4.29975 43.3937 3.94929 44.1458 3.90369C44.5004 3.91621 44.8493 4.00772 45.1722 4.17294C45.4952 4.33815 45.7858 4.57378 46.0272 4.86619C46.2239 5.07967 46.4857 5.20037 46.759 5.2035C47.0323 5.20663 47.2963 5.09196 47.4968 4.88303C47.7473 4.58374 48.0497 4.34539 48.3853 4.18269C48.7209 4.01999 49.0826 3.9364 49.448 3.93708C49.8134 3.93775 50.1749 4.02268 50.51 4.18662C50.8451 4.35056 51.1468 4.59004 51.3964 4.89025C51.6471 5.16456 51.8445 5.49437 51.9761 5.85883C52.1078 6.2233 52.1708 6.61451 52.1612 7.00775C52.172 7.38901 52.1143 7.76881 51.9915 8.12439C51.8688 8.47997 51.6835 8.80402 51.4467 9.07713L46.7738 13.3001L42.1414 9.12886C41.8909 8.85396 41.6936 8.52371 41.562 8.15888C41.4303 7.79405 41.3673 7.40254 41.3767 7.00896C41.3672 6.61555 41.4303 6.2242 41.5619 5.85955C41.6935 5.49491 41.8908 5.16488 42.1414 4.89025V4.89025Z" fill="white"/>
</svg>
