<svg width="72" height="77" viewBox="0 0 72 77" fill="none" xmlns="http://www.w3.org/2000/svg">
<path d="M51.1582 40.525C50.5005 40.5231 49.8489 40.6522 49.2412 40.9048C48.6335 41.1573 48.0818 41.5283 47.618 41.9963L46.0753 43.5446L44.5329 41.9967C44.0679 41.5302 43.516 41.1601 42.9085 40.9075C42.3011 40.655 41.65 40.525 40.9925 40.525C40.3349 40.525 39.6838 40.6549 39.0764 40.9074C38.4689 41.1599 37.9169 41.53 37.452 41.9965C36.987 42.4631 36.6182 43.0169 36.3665 43.6265C36.1149 44.2361 35.9854 44.8895 35.9854 45.5493C35.9853 46.2091 36.1148 46.8625 36.3664 47.4721C36.618 48.0817 36.9868 48.6356 37.4517 49.1021L45.1832 56.8607C45.3003 56.9783 45.4393 57.0715 45.5923 57.1351C45.7454 57.1987 45.9094 57.2314 46.075 57.2314C46.2406 57.2314 46.4046 57.1987 46.5577 57.1351C46.7107 57.0715 46.8497 56.9783 46.9668 56.8607L54.6989 49.1021C55.3992 48.3994 55.876 47.5042 56.0692 46.5295C56.2624 45.5548 56.1632 44.5446 55.7842 43.6265C55.4052 42.7084 54.7634 41.9237 53.94 41.3716C53.1166 40.8196 52.1485 40.5249 51.1582 40.525ZM52.9151 47.3119L46.0753 54.1759L39.2356 47.3119C38.7802 46.8422 38.5274 46.2115 38.5319 45.5562C38.5364 44.9009 38.7978 44.2738 39.2596 43.8104C39.7213 43.347 40.3463 43.0848 40.9993 43.0803C41.6523 43.0758 42.2808 43.3295 42.7489 43.7865L45.1832 46.2293C45.3003 46.3468 45.4393 46.4401 45.5923 46.5037C45.7454 46.5673 45.9094 46.6 46.075 46.6C46.2406 46.6 46.4046 46.5673 46.5577 46.5037C46.7107 46.4401 46.8497 46.3468 46.9668 46.2293L49.4018 43.7863C49.8696 43.328 50.4985 43.0732 51.1523 43.0771C51.806 43.081 52.4319 43.3434 52.8942 43.8073C53.3565 44.2712 53.6179 44.8992 53.6218 45.5553C53.6257 46.2113 53.3718 46.8425 52.9151 47.3119Z" fill="white"/>
<path d="M70.6816 20.9579L36.6286 0.707943C36.4334 0.591864 36.2105 0.530801 35.9836 0.531191C35.7567 0.531581 35.534 0.593409 35.3392 0.710158L1.28623 21.1059C1.0988 21.2181 0.943608 21.3773 0.835836 21.5678C0.728064 21.7582 0.6714 21.9735 0.671387 22.1926V75.3488C0.671387 75.6845 0.804265 76.0064 1.04079 76.2438C1.27731 76.4811 1.59811 76.6144 1.93261 76.6144H1.93529L70.0412 76.4687C70.3752 76.468 70.6953 76.3344 70.9313 76.0971C71.1672 75.8598 71.2997 75.5383 71.2997 75.2031V22.0469C71.2997 21.8271 71.2427 21.6112 71.1343 21.4203C71.0259 21.2294 70.8699 21.07 70.6816 20.9579ZM25.8958 41.1369V44.8281C25.8958 45.0631 25.961 45.2935 26.0842 45.4934C26.2073 45.6934 26.3835 45.8549 26.5929 45.9601L30.988 48.1652C31.8057 48.5723 32.5192 49.1626 33.0733 49.8905C33.6273 50.6185 34.0071 51.4645 34.1833 52.3633L34.7489 55.2013C34.7978 55.4464 34.9178 55.6714 35.0939 55.8481L35.2217 55.9764C35.6612 56.4165 35.9232 57.004 35.9576 57.6261C35.9919 58.2483 35.7961 58.8612 35.4078 59.3474L35.0012 59.8574L34.5946 60.3675C34.0863 61.0051 33.4496 61.528 32.7262 61.902C32.0028 62.2759 31.2089 62.4925 30.3964 62.5377C29.5839 62.5828 28.7711 62.4555 28.011 62.164C27.2509 61.8724 26.5606 61.4233 25.9852 60.8459L25.5269 60.386C25.2904 60.1486 24.9695 60.0153 24.635 60.0153C24.3005 60.0153 23.9797 60.1486 23.7432 60.386C23.5067 60.6233 23.3738 60.9452 23.3738 61.2809C23.3738 61.6166 23.5067 61.9385 23.7432 62.1759L24.2015 62.6358C24.9732 63.4102 25.8894 64.0245 26.8977 64.4435C27.906 64.8626 28.9868 65.0782 30.0781 65.0779C31.1695 65.0777 32.2502 64.8618 33.2583 64.4423C34.2665 64.0229 35.1825 63.4083 35.9539 62.6336L37.5231 64.6035C37.6867 64.8087 37.91 64.9577 38.1618 65.0299L38.5012 65.1273C40.4723 65.6996 42.2329 66.8391 43.5654 68.405C44.8978 69.9708 45.7436 71.8943 45.9981 73.9375H16.7378L16.249 72.343C14.9573 68.1404 14.5918 63.7063 15.1778 59.3479C15.7638 54.9895 17.2873 50.8112 19.6427 47.1024L20.6542 45.5076C20.6774 45.4709 20.6988 45.433 20.7182 45.3942L21.01 44.8088C21.4807 43.8554 22.1681 43.0264 23.0168 42.3886C23.8655 41.7508 24.8517 41.322 25.8958 41.1369ZM39.2414 62.7066L37.5925 60.6383C38.2425 59.6934 38.5527 58.5547 38.472 57.4094C38.3914 56.2641 37.9248 55.1804 37.1489 54.3366L36.6567 51.8667C36.4063 50.5896 35.8666 49.3874 35.0793 48.3529C34.292 47.3185 33.2782 46.4797 32.1163 45.9012L28.4182 44.046V40.231L33.5773 39.7604C33.7912 39.7409 33.9966 39.6668 34.174 39.5453C34.3515 39.4238 34.495 39.2588 34.5911 39.066L35.8523 36.5348C35.9989 36.2349 36.0213 35.8891 35.9149 35.5727C35.8084 35.2563 35.5817 34.9949 35.284 34.8456C34.9864 34.6962 34.642 34.671 34.3258 34.7753C34.0097 34.8797 33.7475 35.1052 33.5963 35.4027L32.6492 37.3035L20.2228 38.4367L18.8162 36.3193L18.9813 36.2086C19.9203 35.578 20.6346 34.6636 21.0207 33.5981C21.4067 32.5325 21.4445 31.3713 21.1284 30.2828L25.1987 28.2405C25.4749 28.1019 25.6909 27.8664 25.8056 27.5786L27.3506 23.7026C27.5883 23.1046 27.9534 22.5659 28.4201 22.1242C28.8869 21.6824 29.4442 21.3483 30.0531 21.1453L33.0485 20.1432C33.5091 19.9901 33.9844 19.8857 34.4666 19.8317C34.9713 20.4139 35.4247 21.039 35.8214 21.7001L37.106 23.8486C38.0235 25.3832 38.5082 27.1391 38.508 28.9287V31.575C38.508 33.2533 39.1724 34.8629 40.355 36.0496C41.5376 37.2364 43.1416 37.9031 44.8141 37.9031C46.4866 37.9031 48.0906 37.2364 49.2732 36.0496C50.4558 34.8629 51.1202 33.2533 51.1202 31.575C51.12 31.0619 51.0879 30.5494 51.024 30.0404C51.5291 30.695 52.0123 31.3687 52.4735 32.0614C56.5796 38.2571 59.175 45.3356 60.0496 52.7243C60.8082 59.1296 60.2425 65.6229 58.388 71.7989L57.7416 73.9637L48.5382 73.9835C48.2863 71.3877 47.2664 68.9268 45.6097 66.9172C43.953 64.9077 41.7352 63.4413 39.2414 62.7066ZM17.1792 33.8556C17.08 33.7063 17.0136 33.5375 16.9843 33.3605C16.9551 33.1834 16.9637 33.0022 17.0096 32.8287C17.0555 32.6553 17.1377 32.4936 17.2506 32.3544C17.3635 32.2153 17.5046 32.1018 17.6646 32.0216L18.7997 31.452C18.8597 31.9635 18.7778 32.4816 18.5631 32.9494C18.3484 33.4171 18.0091 33.8163 17.5828 34.1029L17.4179 34.2136L17.1792 33.8556ZM45.2757 24.1807C46.3186 25.1075 47.1539 26.2457 47.7266 27.5201C48.2992 28.7946 48.5961 30.1763 48.5978 31.5743C48.6002 32.2799 48.4055 32.9721 48.0358 33.5724C47.6662 34.1726 47.1363 34.6569 46.5063 34.9703C45.9805 35.2325 45.4013 35.369 44.8142 35.369C44.227 35.369 43.6478 35.2325 43.122 34.9703C42.492 34.6569 41.9621 34.1726 41.5924 33.5724C41.2227 32.9721 41.028 32.28 41.0304 31.5743V28.9287C41.0303 26.6811 40.4215 24.4757 39.2693 22.5484L37.9847 20.3998C37.9482 20.3387 37.9081 20.2797 37.8708 20.2191C39.9815 20.7947 41.9729 21.7437 43.7512 23.0215C44.2715 23.3942 44.7796 23.7806 45.2757 24.1807ZM68.7773 73.9402L60.3764 73.9581L60.8045 72.5263C62.7582 66.019 63.3539 59.1774 62.5544 52.4287C61.6333 44.6434 58.899 37.185 54.5728 30.6567C52.4608 27.4743 49.8734 24.6368 46.9014 22.244C46.5968 21.9763 46.2785 21.7219 45.9457 21.4832C45.9072 21.4557 45.8671 21.4304 45.8257 21.4074C45.6246 21.2571 45.4223 21.1078 45.2178 20.9613C42.7982 19.2217 40.0361 18.0209 37.1166 17.4393C35.4962 17.1147 33.8195 17.2194 32.2517 17.7433L29.2563 18.7452C28.2995 19.0643 27.4238 19.5892 26.6902 20.2833C25.9566 20.9773 25.383 21.8238 25.0093 22.7635L23.6414 26.1926L16.5361 29.7575C16.0563 29.9983 15.6329 30.3387 15.2942 30.7562C14.9554 31.1737 14.709 31.6587 14.5713 32.179C14.4336 32.6993 14.4078 33.2431 14.4955 33.7743C14.5832 34.3054 14.7824 34.8117 15.08 35.2597L16.0173 36.6702L18.5397 40.4671C18.6656 40.6566 18.8402 40.8085 19.045 40.9067C19.2497 41.005 19.4771 41.046 19.7032 41.0254L20.8262 40.9229C19.9718 41.7043 19.2689 42.6376 18.7529 43.6756L18.4901 44.2031L17.5136 45.7427C14.9619 49.7604 13.3114 54.287 12.6765 59.0086C12.0417 63.7302 12.4377 68.5338 13.8371 73.0865L14.1344 74.0563L3.19383 74.0799V22.9111L35.9879 3.26941L68.7773 22.7681V73.9402Z" fill="white"/>
</svg>
