<svg width="68" height="78" viewBox="0 0 68 78" fill="none" xmlns="http://www.w3.org/2000/svg">
<path d="M17.3503 48.8429C19.5374 47.9384 21.2778 47.8313 22.5272 48.5299C23.3986 49.0606 24.0376 49.9335 24.3042 50.9593C24.4589 51.6483 25.1064 52.0797 25.7606 51.9292C26.4149 51.7792 26.8351 51.1021 26.7057 50.4077C26.286 48.6501 25.2065 47.1495 23.7164 46.2546C21.8044 45.1663 19.3624 45.2222 16.4547 46.4212C15.8224 46.683 15.5102 47.4369 15.7572 48.1056C16.0047 48.7744 16.7174 49.1047 17.3503 48.8429Z" fill="white"/>
<path d="M38.7652 51.95C39.0835 52.0214 39.4166 51.9565 39.69 51.7691C39.9633 51.5811 40.1552 51.286 40.2232 50.9492C40.4859 49.9347 41.1154 49.0708 41.9749 48.543C43.2243 47.8308 44.9743 47.9331 47.1761 48.8417C47.8084 49.1035 48.5217 48.7732 48.7686 48.1045C49.0161 47.4357 48.7039 46.6812 48.0716 46.42C45.165 45.2205 42.7225 45.1645 40.8099 46.2528C39.3198 47.1483 38.2398 48.6489 37.8207 50.4065C37.752 50.7433 37.8134 51.0956 37.99 51.3853C38.1672 51.6745 38.4462 51.878 38.7652 51.95Z" fill="white"/>
<path d="M26.504 62.3769C25.8256 62.3769 25.2754 62.9588 25.2754 63.677V64.9765C25.2664 67.1447 26.5361 69.0886 28.4554 69.8478C30.3753 70.607 32.5394 70.0209 33.8776 68.3793C35.2159 70.0209 37.3794 70.607 39.2993 69.8478C41.2192 69.0886 42.4882 67.1447 42.4792 64.9765V63.677C42.4792 62.9588 41.9291 62.3769 41.2507 62.3769C40.5717 62.3769 40.0216 62.9588 40.0216 63.677V64.9765C40.0216 66.4122 38.9212 67.5761 37.5639 67.5761C36.2065 67.5761 35.1062 66.4122 35.1062 64.9765V60.8329C35.5388 60.6645 35.9297 60.3937 36.2492 60.0421L38.0887 57.9619C38.7851 57.2075 38.9831 56.0835 38.5894 55.1143C38.0628 53.9534 36.9361 53.2322 35.7193 53.2781H32.0353C30.8186 53.2322 29.6924 53.9534 29.1659 55.1143C28.7727 56.0829 28.9696 57.2069 29.6654 57.9619L31.5071 60.0421C31.8261 60.3937 32.2165 60.6645 32.6485 60.8329V64.9765C32.6485 66.4122 31.5482 67.5761 30.1908 67.5761C28.8334 67.5761 27.7331 66.4122 27.7331 64.9765V63.677C27.7331 62.9588 27.183 62.3769 26.504 62.3769ZM31.4182 56.1543C31.4329 56.0936 31.6168 55.8776 32.0353 55.8776H35.7193C36.1384 55.8776 36.3218 56.0936 36.2942 56.1853L34.4548 58.2648C34.1105 58.5278 33.6459 58.5278 33.3016 58.2648L31.4182 56.1543Z" fill="white"/>
<path d="M1.92727 50.6785C3.04558 50.6796 4.16332 50.754 5.27319 50.9004C4.69547 52.9371 4.39621 55.0512 4.38495 57.1777V57.189C3.27734 57.5347 2.22091 58.0423 1.24548 58.6956C0.875904 58.9514 0.664393 59.3971 0.691394 59.8636C0.718396 60.3301 0.979971 60.7448 1.37655 60.9506C1.77314 61.1565 2.24341 61.1214 2.60905 60.859C3.22671 60.4413 3.88993 60.1034 4.58409 59.8523C4.79954 61.4308 5.22706 62.9689 5.85428 64.4195C3.57885 65.9975 2.12753 68.6054 1.92727 71.4757C1.92727 75.4843 5.69396 77.9744 11.758 77.9744C14.493 78.1523 17.21 77.3948 19.5068 75.8145C24.1668 77.2984 29.0119 78.0267 33.8778 77.9744C38.7436 78.0267 43.5887 77.2984 48.2481 75.8145C50.5449 77.3948 53.2619 78.1523 55.9969 77.9744C62.061 77.9744 65.8277 75.4843 65.8277 71.4757C65.628 68.6054 64.1761 65.9975 61.9007 64.4195C62.5279 62.9689 62.9554 61.4308 63.1708 59.8523C63.865 60.1034 64.5282 60.4413 65.1464 60.859C65.5115 61.1214 65.9818 61.1565 66.3784 60.9506C66.775 60.7448 67.0365 60.3301 67.0641 59.8636C67.0911 59.3971 66.8796 58.9514 66.5095 58.6956C65.534 58.0423 64.4776 57.5347 63.37 57.189V57.1777C63.3593 55.0512 63.06 52.9371 62.4818 50.9004C63.5916 50.754 64.7094 50.6802 65.8277 50.6785C66.5066 50.6785 67.0568 50.0965 67.0568 49.379C67.0568 48.6608 66.5066 48.0789 65.8277 48.0789C64.4253 48.0795 63.0246 48.1842 61.6357 48.3918C61.1193 47.0525 60.5078 45.756 59.8075 44.5136C60.6158 41.7379 63.7829 30.0597 61.0529 26.0773C60.473 25.189 59.5122 24.666 58.4917 24.6826C56.6618 24.8302 54.8826 25.3883 53.2726 26.3201C50.1286 21.6196 44.5849 18.3173 38.266 17.2564C38.2452 15.4856 38.0348 13.7232 37.6394 12.0019C37.3637 10.5596 37.8694 9.07444 38.9512 8.14861C40.4841 7.05618 42.9873 8.7466 43.9914 9.52308C45.0546 10.3579 46.4587 10.5257 47.6709 9.96279C48.8832 9.40051 49.7174 8.19324 49.8558 6.80033C49.9947 5.40802 49.4165 4.04367 48.342 3.22613C41.5973 -1.99505 36.6566 0.390331 34.8374 1.66364C31.19 4.41495 29.4709 9.22201 30.484 13.8381C30.7282 14.8924 30.8699 15.97 30.9059 17.0547C23.9998 17.8294 17.8558 21.2649 14.4851 26.3112C12.8853 25.3865 11.1179 24.8314 9.30033 24.6826C8.27821 24.666 7.31516 25.1902 6.73351 26.0791C4.01425 30.0448 7.16553 41.6891 7.97163 44.4606C7.2606 45.7191 6.64069 47.0329 6.11754 48.3907C4.72922 48.1836 3.32909 48.0795 1.92727 48.0789C1.2483 48.0789 0.698145 48.6608 0.698145 49.379C0.698145 50.0965 1.2483 50.6785 1.92727 50.6785ZM4.38495 71.4757C4.38495 68.5501 7.78713 64.9765 11.758 64.9765C15.7289 64.9765 19.1311 68.5501 19.1311 71.4757C19.1311 73.3678 17.4784 74.4543 15.3346 74.9791C15.4049 74.6834 15.442 74.3799 15.4448 74.0753V71.4757C15.4448 70.7575 14.8947 70.1756 14.2157 70.1756C13.5373 70.1756 12.9871 70.7575 12.9871 71.4757V74.0753C12.9871 74.7929 12.437 75.3748 11.758 75.3748C11.0796 75.3748 10.5289 74.7929 10.5289 74.0753V71.4757C10.5289 70.7575 9.97874 70.1756 9.30033 70.1756C8.62136 70.1756 8.0712 70.7575 8.0712 71.4757V74.0753C8.07402 74.3799 8.11114 74.6834 8.18146 74.9791C6.03766 74.4543 4.38495 73.3678 4.38495 71.4757ZM63.37 71.4757C63.37 73.3678 61.7173 74.4543 59.574 74.9791C59.6438 74.6834 59.6809 74.3799 59.6837 74.0753V71.4757C59.6837 70.7575 59.1336 70.1756 58.4546 70.1756C57.7762 70.1756 57.226 70.7575 57.226 71.4757V74.0753C57.226 74.7929 56.6759 75.3748 55.9969 75.3748C55.3185 75.3748 54.7684 74.7929 54.7684 74.0753V71.4757C54.7684 70.7575 54.2182 70.1756 53.5392 70.1756C52.8608 70.1756 52.3107 70.7575 52.3107 71.4757V74.0753C52.3135 74.3799 52.3501 74.6834 52.4204 74.9791C50.2766 74.4543 48.6239 73.3678 48.6239 71.4757C48.6239 68.5501 52.026 64.9765 55.9969 64.9765C59.9678 64.9765 63.37 68.5512 63.37 71.4757ZM32.8708 13.2193C32.0816 9.6635 33.3968 5.95483 36.2021 3.8259C37.9195 2.62458 41.5889 1.21977 46.8913 5.32472C47.2457 5.59901 47.4352 6.05181 47.388 6.51413C47.3413 6.97586 47.0645 7.3757 46.6629 7.56372C46.2618 7.75175 45.7955 7.6982 45.4411 7.42449C42.3894 5.0641 39.5981 4.55537 37.5831 5.98874C35.6446 7.52326 34.7328 10.1151 35.2514 12.6165C35.5816 14.0404 35.769 15.4969 35.8117 16.9618C35.171 16.9154 34.5275 16.8833 33.8778 16.8833C33.7034 16.8833 33.5312 16.8958 33.3574 16.8994C33.313 15.6582 33.1498 14.4253 32.8708 13.2193ZM33.8778 19.4829C41.0415 19.4829 47.6299 22.612 51.0832 27.5482C49.4362 28.5341 47.6186 29.7551 45.6059 31.2473C38.1535 27.7118 29.6295 27.7077 22.1743 31.236C20.1515 29.7432 18.3272 28.5222 16.6773 27.5375C20.1217 22.6079 26.7072 19.4829 33.8778 19.4829ZM10.4799 44.2316C8.22759 36.9362 7.43892 29.479 8.72261 27.6059C8.84355 27.3923 9.06575 27.2679 9.30033 27.2822C11.0537 27.4881 12.7419 28.1039 14.2421 29.0845C14.2528 29.0916 14.2579 29.1029 14.2686 29.1101C14.3085 29.1309 14.3496 29.1494 14.3912 29.1654C16.7977 30.5458 19.1164 32.0905 21.3328 33.7892C21.6945 34.0605 22.1659 34.1046 22.5664 33.904C29.7274 30.2864 38.0517 30.2906 45.2093 33.9154C45.6115 34.1182 46.0863 34.0748 46.4491 33.8005C51.9529 29.6581 56.3429 27.2822 58.4917 27.2822C58.7235 27.2685 58.9434 27.3923 59.0627 27.6029C60.3531 29.4855 59.5611 36.9677 57.2986 44.2821C57.185 44.6487 57.2311 45.0491 57.4246 45.3758C58.085 46.4962 58.6656 47.6665 59.1628 48.8768C56.4537 49.4754 53.8773 50.6166 51.5732 52.2386C51.0439 52.6729 50.9415 53.4756 51.3426 54.0432C51.7436 54.6109 52.5008 54.734 53.0442 54.3199C55.179 52.8711 57.5523 51.8601 60.0404 51.3395C60.5371 53.0222 60.8217 54.7673 60.887 56.5292C58.8686 56.1263 56.8216 55.9086 54.7684 55.8776C54.0894 55.8776 53.5392 56.4595 53.5392 57.1777C53.5392 57.8953 54.0894 58.4772 54.7684 58.4772C56.7923 58.5153 58.8096 58.7432 60.7953 59.1579C60.6327 60.5389 60.28 61.8872 59.7484 63.1605C58.5576 62.6452 57.2834 62.3793 55.9969 62.3769C50.46 62.3769 46.1662 67.2678 46.1662 71.4757C46.1617 72.2201 46.3062 72.9573 46.5898 73.6391C42.4479 74.8321 38.1704 75.4164 33.8778 75.3748C29.5851 75.4164 25.3076 74.8321 21.1652 73.6391C21.4487 72.9573 21.5933 72.2201 21.5888 71.4757C21.5888 67.2678 17.295 62.3769 11.758 62.3769C10.4715 62.3793 9.19738 62.6452 8.00651 63.1605C7.47492 61.8872 7.12222 60.5389 6.95965 59.1579C8.94593 58.7432 10.9626 58.5153 12.9871 58.4772C13.6655 58.4772 14.2157 57.8953 14.2157 57.1777C14.2157 56.4595 13.6655 55.8776 12.9871 55.8776C10.9333 55.9086 8.88574 56.1263 6.86795 56.5292C6.93265 54.7679 7.21728 53.0228 7.714 51.3401C10.2021 51.8601 12.5754 52.8711 14.7102 54.3199C15.2536 54.7334 16.0107 54.6109 16.4118 54.0432C16.8135 53.4762 16.7111 52.6729 16.1817 52.2386C13.8771 50.616 11.3007 49.4748 8.59042 48.8762C9.09388 47.6475 9.68341 46.4599 10.3545 45.3246C10.5475 44.9979 10.5936 44.5975 10.4799 44.2316Z" fill="white"/>
</svg>
