<svg width="20" height="20" viewBox="0 0 20 20" fill="none" xmlns="http://www.w3.org/2000/svg">
<path d="M5.78139 15.3895C4.90761 15.3395 4.92406 13.9627 5.78135 13.9149C8.20979 13.9244 14.615 13.9174 17.1207 13.9194C17.806 13.9194 18.3923 13.397 18.5465 12.649L19.9692 5.74727C20.0507 5.3521 19.9685 4.94309 19.7437 4.62519C19.5189 4.3073 19.1823 4.12241 18.8203 4.12241C17.8123 4.12241 9.25601 4.07902 4.87349 4.05945L4.17878 1.17194C4.01202 0.481902 3.44988 0 2.81173 0H0.586249C0.262483 0 0 0.294036 0 0.656721C0 1.01941 0.262483 1.31344 0.586249 1.31344H2.81173C2.92159 1.31344 3.01832 1.39641 3.04689 1.51449L5.71491 12.6033C5.2458 12.6223 4.80885 12.8361 4.4775 13.2127C4.12934 13.6085 3.94237 14.1324 3.95101 14.6879C3.96828 15.7989 4.78938 16.7029 5.78139 16.7029H6.63622C6.50916 17.0016 6.43784 17.3356 6.43784 17.688C6.43784 18.9554 7.35833 19.9866 8.48979 19.9866C9.62125 19.9866 10.5417 18.9554 10.5417 17.688C10.5417 17.3356 10.4704 17.0016 10.3433 16.7029H14.0451C13.9182 17.0015 13.8469 17.3354 13.8469 17.6876C13.8469 18.9551 14.7674 19.9862 15.8988 19.9862C17.0303 19.9862 17.9508 18.9551 17.9508 17.6876C17.9508 17.3217 17.8736 16.9756 17.7372 16.6682C17.9692 16.5807 18.1365 16.3355 18.1365 16.0462C18.1365 15.6835 17.874 15.3895 17.5503 15.3895H5.78139ZM9.3692 17.688C9.3692 18.2313 8.97469 18.6732 8.48975 18.6732C8.0048 18.6732 7.61029 18.2313 7.61029 17.688C7.61029 17.1451 8.00441 16.7033 8.489 16.7029H8.49049C8.97508 16.7033 9.3692 17.1451 9.3692 17.688ZM15.8988 18.6728C15.4139 18.6728 15.0194 18.2309 15.0194 17.6877C15.0194 17.1498 15.4062 16.7115 15.8846 16.7029H15.9131C16.3915 16.7115 16.7784 17.1498 16.7784 17.6877C16.7783 18.2309 16.3838 18.6728 15.8988 18.6728ZM18.8246 5.44067C18.8281 5.44557 18.8276 5.44789 18.8268 5.45166L18.2273 8.35983H16.1973L16.543 5.42547L18.8156 5.43572C18.8191 5.43581 18.8212 5.43581 18.8246 5.44067ZM12.7806 12.6059V9.67327H14.8599L14.5144 12.6059H12.7806ZM9.87349 12.6059L9.52518 9.67327H11.6081V12.6059H9.87349ZM7.17467 12.6059H7.17284C7.02995 12.6059 6.90406 12.4979 6.86689 12.3441L6.22428 9.67327H8.34232L8.69063 12.6059H7.17467ZM9.36916 8.35988L9.01659 5.39154L11.608 5.40323V8.35988H9.36916ZM12.7806 8.35988V5.40853L15.3609 5.42018L15.0146 8.35988H12.7806ZM7.83311 5.38616L8.1863 8.35983H5.90826L5.18991 5.37421L7.83311 5.38616ZM17.1207 12.6059H15.697L16.0425 9.67327H17.9565L17.404 12.3534C17.3734 12.5021 17.2569 12.6059 17.1207 12.6059Z" fill="white"/>
</svg>
