<svg width="38" height="38" viewBox="0 0 38 38" fill="none" xmlns="http://www.w3.org/2000/svg">
<path d="M29.9132 1.06384V1.05992C29.2387 0.381865 28.3219 0.000392562 27.3655 0H10.6306C8.64293 0.00647727 7.03333 1.61608 7.02686 3.60372V34.3924C7.02725 35.3487 7.40872 36.2656 8.08677 36.9401C8.76031 37.6172 9.67557 37.9985 10.6306 38H27.3694C28.3244 37.9985 29.2397 37.6172 29.9132 36.9401C30.5903 36.2665 30.9717 35.3513 30.9731 34.3963V3.60764C30.9717 2.65264 30.5903 1.73738 29.9132 1.06384ZM19 35.5543C18.4623 35.5543 18.0264 35.1185 18.0264 34.5808C18.0264 34.0431 18.4623 33.6072 19 33.6072C19.5377 33.6072 19.9735 34.0431 19.9735 34.5808C19.9735 35.1185 19.5377 35.5543 19 35.5543ZM28.1114 29.4421C28.1114 30.743 27.0568 31.7975 25.756 31.7975H12.2401C10.9392 31.7975 9.88471 30.743 9.88471 29.4421V6.4969C9.88471 5.19605 10.9392 4.14153 12.2401 4.14153H25.7599C27.0608 4.14153 28.1153 5.19605 28.1153 6.4969L28.1114 29.4421Z" fill="black"/>
</svg>
